<svg width="668" height="900" viewBox="0 0 668 900" fill="none" xmlns="http://www.w3.org/2000/svg">
<path d="M18.4651 190.806C18.314 189.598 18.1931 189.477 16.9541 189.296C18.1629 189.145 18.2837 189.024 18.4651 187.786C18.6161 188.994 18.737 189.114 19.976 189.296C18.7672 189.447 18.6464 189.598 18.4651 190.806Z" fill="white" fill-opacity="0.1"/>
<path d="M31.7817 24.3301C31.6306 23.122 31.5098 23.0012 30.2708 22.8199C31.4795 22.6688 31.6004 22.548 31.7817 21.3097C31.9328 22.5179 32.0537 22.6386 33.2927 22.8199C32.0839 22.9708 31.963 23.122 31.7817 24.3301Z" fill="white" fill-opacity="0.1"/>
<path d="M117.229 129.383C117.078 128.174 116.957 128.054 115.718 127.872C116.927 127.721 117.048 127.6 117.229 126.362C117.38 127.57 117.501 127.691 118.74 127.872C117.531 128.023 117.411 128.174 117.229 129.383Z" fill="white" fill-opacity="0.1"/>
<path d="M208.951 38.703C208.951 39.3201 208.45 39.8205 207.832 39.8205C207.215 39.8205 206.714 39.3201 206.714 38.703C206.714 38.0857 207.215 37.5854 207.832 37.5854C208.45 37.5854 208.951 38.0857 208.951 38.703Z" fill="white" fill-opacity="0.1"/>
<path d="M54.8953 89.2197C54.8953 89.8368 54.3946 90.3373 53.777 90.3373C53.1597 90.3373 52.6589 89.8368 52.6589 89.2197C52.6589 88.6024 53.1597 88.1022 53.777 88.1022C54.3946 88.1022 54.8953 88.6024 54.8953 89.2197Z" fill="white" fill-opacity="0.1"/>
<path d="M60.2495 192.582C60.2495 193.2 59.7491 193.7 59.1315 193.7C58.5141 193.7 58.0134 193.2 58.0134 192.582C58.0134 191.965 58.5141 191.465 59.1315 191.465C59.7491 191.465 60.2495 191.965 60.2495 192.582Z" fill="white" fill-opacity="0.1"/>
<path d="M75.7237 132.287C75.7237 132.904 75.2232 133.405 74.6056 133.405C73.988 133.405 73.4875 132.904 73.4875 132.287C73.4875 131.67 73.988 131.17 74.6056 131.17C75.2232 131.17 75.7237 131.67 75.7237 132.287Z" fill="white" fill-opacity="0.1"/>
<path d="M276.332 22.1235C275.553 22.9018 274.29 22.9018 273.511 22.1235C272.732 21.3448 272.732 20.0827 273.511 19.3043C274.29 18.5257 275.553 18.5257 276.332 19.3043C277.111 20.0827 277.111 21.3448 276.332 22.1235Z" fill="white" fill-opacity="0.15"/>
<path d="M157.904 89.3797C157.904 89.9968 157.403 90.4973 156.786 90.4973C156.168 90.4973 155.668 89.9968 155.668 89.3797C155.668 88.7624 156.168 88.2622 156.786 88.2622C157.403 88.2622 157.904 88.7624 157.904 89.3797Z" fill="white" fill-opacity="0.15"/>
<path d="M95.405 15.0826C95.2539 13.8744 95.133 13.7536 93.894 13.5724C95.1028 13.4212 95.2237 13.3004 95.405 12.0621C95.5561 13.2703 95.677 13.3911 96.916 13.5724C95.7072 13.7232 95.5863 13.8744 95.405 15.0826Z" fill="white" fill-opacity="0.1"/>
<path d="M124.196 93.1308C124.044 91.9226 123.924 91.8018 122.685 91.6206C123.893 91.4694 124.014 91.3487 124.196 90.1104C124.347 91.3185 124.468 91.4393 125.706 91.6206C124.498 91.7715 124.377 91.9226 124.196 93.1308Z" fill="white" fill-opacity="0.1"/>
<path d="M445.223 395.39C445.374 396.598 445.495 396.719 446.734 396.9C445.525 397.051 445.405 397.172 445.223 398.411C445.072 397.202 444.951 397.082 443.712 396.9C444.921 396.749 445.042 396.598 445.223 395.39Z" fill="white" fill-opacity="0.1"/>
<path d="M528.821 151.605C528.972 152.813 529.093 152.934 530.332 153.115C529.124 153.266 529.003 153.387 528.821 154.625C528.67 153.417 528.549 153.296 527.31 153.115C528.519 152.964 528.64 152.813 528.821 151.605Z" fill="white" fill-opacity="0.1"/>
<path d="M515.505 318.08C515.656 319.289 515.777 319.409 517.016 319.591C515.807 319.742 515.686 319.863 515.505 321.101C515.354 319.893 515.233 319.772 513.994 319.591C515.202 319.44 515.323 319.289 515.505 318.08Z" fill="white" fill-opacity="0.1"/>
<path d="M430.057 213.028C430.208 214.236 430.329 214.357 431.568 214.538C430.359 214.689 430.238 214.81 430.057 216.048C429.906 214.84 429.785 214.72 428.546 214.538C429.755 214.387 429.876 214.236 430.057 213.028Z" fill="white" fill-opacity="0.1"/>
<path d="M554.05 397.293C554.05 396.676 554.551 396.175 555.168 396.175C555.786 396.175 556.286 396.676 556.286 397.293C556.286 397.91 555.786 398.411 555.168 398.411C554.551 398.411 554.05 397.91 554.05 397.293Z" fill="white" fill-opacity="0.1"/>
<path d="M338.336 303.708C338.336 303.091 338.836 302.59 339.454 302.59C340.071 302.59 340.572 303.091 340.572 303.708C340.572 304.325 340.071 304.825 339.454 304.825C338.836 304.825 338.336 304.325 338.336 303.708Z" fill="white" fill-opacity="0.1"/>
<path d="M492.391 253.191C492.391 252.574 492.892 252.073 493.509 252.073C494.127 252.073 494.627 252.574 494.627 253.191C494.627 253.808 494.127 254.308 493.509 254.308C492.892 254.308 492.391 253.808 492.391 253.191Z" fill="white" fill-opacity="0.1"/>
<path d="M487.037 149.828C487.037 149.211 487.537 148.71 488.155 148.71C488.772 148.71 489.273 149.211 489.273 149.828C489.273 150.445 488.772 150.946 488.155 150.946C487.537 150.946 487.037 150.445 487.037 149.828Z" fill="white" fill-opacity="0.1"/>
<path d="M471.563 210.123C471.563 209.506 472.063 209.006 472.681 209.006C473.298 209.006 473.799 209.506 473.799 210.123C473.799 210.741 473.298 211.241 472.681 211.241C472.063 211.241 471.563 210.741 471.563 210.123Z" fill="white" fill-opacity="0.1"/>
<path d="M264.899 385.346C265.906 384.9 267.084 385.355 267.53 386.362C267.976 387.369 267.521 388.546 266.513 388.992C265.506 389.437 264.328 388.983 263.882 387.976C263.436 386.969 263.892 385.792 264.899 385.346Z" fill="white" fill-opacity="0.15"/>
<path d="M419.071 368.674C419.071 367.573 419.964 366.681 421.066 366.681C422.167 366.681 423.06 367.573 423.06 368.674C423.06 369.775 422.167 370.668 421.066 370.668C419.964 370.668 419.071 369.775 419.071 368.674Z" fill="white" fill-opacity="0.15"/>
<path d="M270.955 320.287C271.734 319.509 272.996 319.509 273.775 320.287C274.554 321.066 274.554 322.328 273.775 323.106C272.996 323.885 271.734 323.885 270.955 323.106C270.176 322.328 270.176 321.066 270.955 320.287Z" fill="white" fill-opacity="0.15"/>
<path d="M296.167 369.55C296.167 368.933 296.667 368.433 297.285 368.433C297.903 368.433 298.403 368.933 298.403 369.55C298.403 370.168 297.903 370.668 297.285 370.668C296.667 370.668 296.167 370.168 296.167 369.55Z" fill="white" fill-opacity="0.15"/>
<path d="M389.383 253.031C389.383 252.414 389.883 251.913 390.501 251.913C391.118 251.913 391.619 252.414 391.619 253.031C391.619 253.648 391.118 254.148 390.501 254.148C389.883 254.148 389.383 253.648 389.383 253.031Z" fill="white" fill-opacity="0.15"/>
<path d="M451.881 327.328C452.032 328.536 452.153 328.657 453.392 328.838C452.184 328.989 452.063 329.11 451.881 330.348C451.73 329.14 451.609 329.019 450.37 328.838C451.579 328.687 451.7 328.536 451.881 327.328Z" fill="white" fill-opacity="0.1"/>
<path d="M346.521 375.417C346.672 376.625 346.793 376.746 348.032 376.927C346.823 377.078 346.702 377.199 346.521 378.437C346.37 377.229 346.249 377.108 345.01 376.927C346.219 376.776 346.34 376.625 346.521 375.417Z" fill="white" fill-opacity="0.1"/>
<path d="M423.091 249.28C423.242 250.488 423.363 250.609 424.602 250.79C423.393 250.941 423.272 251.062 423.091 252.3C422.94 251.092 422.819 250.971 421.58 250.79C422.789 250.639 422.91 250.488 423.091 249.28Z" fill="white" fill-opacity="0.1"/>
<path d="M490.783 364.32C490.934 365.528 491.055 365.648 492.294 365.83C491.085 365.981 490.964 366.102 490.783 367.34C490.632 366.132 490.511 366.011 489.272 365.83C490.481 365.679 490.602 365.528 490.783 364.32Z" fill="white" fill-opacity="0.1"/>
<path d="M582.658 598.202C582.809 596.994 582.93 596.873 584.169 596.692C582.96 596.541 582.84 596.42 582.658 595.181C582.507 596.39 582.386 596.51 581.147 596.692C582.356 596.843 582.477 596.994 582.658 598.202Z" fill="white" fill-opacity="0.1"/>
<path d="M666.302 740.362C666.453 739.154 666.574 739.033 667.813 738.852C666.604 738.7 666.484 738.58 666.302 737.341C666.151 738.55 666.03 738.67 664.791 738.852C666 739.003 666.121 739.154 666.302 740.362Z" fill="white" fill-opacity="0.1"/>
<path d="M570.063 732.025C570.214 730.816 570.334 730.696 571.573 730.514C570.365 730.363 570.244 730.243 570.063 729.004C569.911 730.212 569.791 730.333 568.552 730.514C569.76 730.665 569.881 730.816 570.063 732.025Z" fill="white" fill-opacity="0.1"/>
<path d="M405.231 640.139C405.382 638.931 405.503 638.81 406.742 638.629C405.533 638.478 405.412 638.357 405.231 637.119C405.08 638.327 404.959 638.448 403.72 638.629C404.929 638.78 405.05 638.931 405.231 640.139Z" fill="white" fill-opacity="0.1"/>
<path d="M493.944 544.196C494.095 542.988 494.216 542.867 495.455 542.686C494.246 542.534 494.125 542.414 493.944 541.175C493.793 542.383 493.672 542.504 492.433 542.686C493.641 542.836 493.762 542.988 493.944 544.196Z" fill="white" fill-opacity="0.1"/>
<path d="M513.152 590.203C513.152 590.82 513.653 591.32 514.27 591.32C514.888 591.32 515.388 590.82 515.388 590.203C515.388 589.585 514.888 589.085 514.27 589.085C513.653 589.085 513.152 589.585 513.152 590.203Z" fill="white" fill-opacity="0.1"/>
<path d="M347.061 698.068C347.061 698.685 347.561 699.185 348.179 699.185C348.796 699.185 349.297 698.685 349.297 698.068C349.297 697.45 348.796 696.95 348.179 696.95C347.561 696.95 347.061 697.45 347.061 698.068Z" fill="white" fill-opacity="0.1"/>
<path d="M603.773 622.607C603.773 623.224 604.274 623.725 604.892 623.725C605.509 623.725 606.01 623.224 606.01 622.607C606.01 621.99 605.509 621.49 604.892 621.49C604.274 621.49 603.773 621.99 603.773 622.607Z" fill="white" fill-opacity="0.1"/>
<path d="M392.594 540.118C392.594 540.735 393.095 541.235 393.713 541.235C394.33 541.235 394.831 540.735 394.831 540.118C394.831 539.5 394.33 539 393.713 539C393.095 539 392.594 539.5 392.594 540.118Z" fill="white" fill-opacity="0.1"/>
<path d="M630.406 665.886C630.406 666.503 630.907 667.003 631.525 667.003C632.142 667.003 632.643 666.503 632.643 665.886C632.643 665.269 632.142 664.768 631.525 664.768C630.907 664.768 630.406 665.269 630.406 665.886Z" fill="white" fill-opacity="0.1"/>
<path d="M595.618 755.133C595.618 755.751 596.118 756.251 596.736 756.251C597.353 756.251 597.854 755.751 597.854 755.133C597.854 754.516 597.353 754.016 596.736 754.016C596.118 754.016 595.618 754.516 595.618 755.133Z" fill="white" fill-opacity="0.1"/>
<path d="M575.599 646.651C575.599 647.268 576.1 647.769 576.717 647.769C577.335 647.769 577.835 647.268 577.835 646.651C577.835 646.034 577.335 645.534 576.717 645.534C576.1 645.534 575.599 646.034 575.599 646.651Z" fill="white" fill-opacity="0.1"/>
<path d="M591.275 690.136C592.282 690.582 593.46 690.127 593.906 689.12C594.352 688.114 593.897 686.936 592.889 686.49C591.882 686.045 590.704 686.5 590.258 687.506C589.812 688.513 590.268 689.69 591.275 690.136Z" fill="white" fill-opacity="0.15"/>
<path d="M444.571 684.59C444.571 685.691 445.464 686.584 446.565 686.584C447.667 686.584 448.56 685.691 448.56 684.59C448.56 683.489 447.667 682.597 446.565 682.597C445.464 682.597 444.571 683.489 444.571 684.59Z" fill="white" fill-opacity="0.15"/>
<path d="M510.71 651.624C511.489 652.402 512.752 652.402 513.531 651.624C514.31 650.845 514.31 649.583 513.531 648.805C512.752 648.026 511.489 648.026 510.71 648.805C509.931 649.583 509.931 650.845 510.71 651.624Z" fill="white" fill-opacity="0.15"/>
<path d="M582.627 548.997C582.627 549.614 583.128 550.114 583.745 550.114C584.363 550.114 584.863 549.614 584.863 548.997C584.863 548.38 584.363 547.879 583.745 547.879C583.128 547.879 582.627 548.38 582.627 548.997Z" fill="white" fill-opacity="0.15"/>
<path d="M460.251 580.068C460.251 580.685 460.752 581.186 461.369 581.186C461.987 581.186 462.487 580.685 462.487 580.068C462.487 579.451 461.987 578.951 461.369 578.951C460.752 578.951 460.251 579.451 460.251 580.068Z" fill="white" fill-opacity="0.15"/>
<path d="M448.674 754.061C448.825 752.852 448.946 752.732 450.185 752.55C448.976 752.399 448.855 752.278 448.674 751.04C448.523 752.248 448.402 752.369 447.163 752.55C448.371 752.701 448.492 752.852 448.674 754.061Z" fill="white" fill-opacity="0.1"/>
<path d="M361.148 611.148C361.3 609.94 361.42 609.819 362.659 609.638C361.451 609.487 361.33 609.366 361.148 608.128C360.997 609.336 360.876 609.456 359.638 609.638C360.846 609.789 360.967 609.94 361.148 611.148Z" fill="white" fill-opacity="0.1"/>
<path d="M305.51 663.768C305.661 662.56 305.782 662.439 307.021 662.258C305.812 662.107 305.692 661.986 305.51 660.747C305.359 661.956 305.238 662.076 303.999 662.258C305.208 662.409 305.329 662.56 305.51 663.768Z" fill="white" fill-opacity="0.1"/>
<path d="M391.3 775.957C391.451 777.165 391.572 777.286 392.811 777.467C391.603 777.618 391.482 777.739 391.3 778.977C391.149 777.769 391.028 777.648 389.789 777.467C390.998 777.316 391.119 777.165 391.3 775.957Z" fill="white" fill-opacity="0.1"/>
<path d="M295.061 784.294C295.212 785.502 295.333 785.623 296.572 785.804C295.363 785.956 295.242 786.076 295.061 787.315C294.909 786.106 294.789 785.986 293.55 785.804C294.758 785.654 294.879 785.502 295.061 784.294Z" fill="white" fill-opacity="0.1"/>
<path d="M95.7639 718C95.915 719.208 96.0359 719.329 97.2749 719.51C96.0661 719.661 95.9453 719.782 95.7639 721.02C95.6129 719.812 95.492 719.691 94.253 719.51C95.4618 719.359 95.5826 719.208 95.7639 718Z" fill="white" fill-opacity="0.1"/>
<path d="M72.0588 818.251C72.0588 817.634 72.5593 817.134 73.1769 817.134C73.7945 817.134 74.2949 817.634 74.2949 818.251C74.2949 818.869 73.7945 819.369 73.1769 819.369C72.5593 819.369 72.0588 818.869 72.0588 818.251Z" fill="white" fill-opacity="0.1"/>
<path d="M328.771 893.712C328.771 893.095 329.272 892.594 329.89 892.594C330.507 892.594 331.008 893.095 331.008 893.712C331.008 894.329 330.507 894.829 329.89 894.829C329.272 894.829 328.771 894.329 328.771 893.712Z" fill="white" fill-opacity="0.1"/>
<path d="M355.404 850.433C355.404 849.816 355.905 849.315 356.523 849.315C357.14 849.315 357.641 849.816 357.641 850.433C357.641 851.05 357.14 851.55 356.523 851.55C355.905 851.55 355.404 851.05 355.404 850.433Z" fill="white" fill-opacity="0.1"/>
<path d="M320.616 761.185C320.616 760.568 321.116 760.068 321.734 760.068C322.351 760.068 322.852 760.568 322.852 761.185C322.852 761.803 322.351 762.303 321.734 762.303C321.116 762.303 320.616 761.803 320.616 761.185Z" fill="white" fill-opacity="0.1"/>
<path d="M300.597 869.668C300.597 869.05 301.098 868.55 301.715 868.55C302.333 868.55 302.833 869.05 302.833 869.668C302.833 870.285 302.333 870.785 301.715 870.785C301.098 870.785 300.597 870.285 300.597 869.668Z" fill="white" fill-opacity="0.1"/>
<path d="M316.273 826.183C317.28 825.737 318.458 826.192 318.904 827.199C319.35 828.205 318.895 829.383 317.887 829.828C316.88 830.274 315.702 829.819 315.256 828.812C314.81 827.806 315.266 826.629 316.273 826.183Z" fill="white" fill-opacity="0.15"/>
<path d="M169.569 831.728C169.569 830.627 170.462 829.735 171.563 829.735C172.665 829.735 173.558 830.627 173.558 831.728C173.558 832.829 172.665 833.722 171.563 833.722C170.462 833.722 169.569 832.829 169.569 831.728Z" fill="white" fill-opacity="0.15"/>
<path d="M235.708 864.695C236.487 863.917 237.75 863.917 238.529 864.695C239.308 865.474 239.308 866.736 238.529 867.514C237.75 868.293 236.487 868.293 235.708 867.514C234.929 866.736 234.929 865.474 235.708 864.695Z" fill="white" fill-opacity="0.15"/>
<path d="M173.672 762.258C173.823 763.466 173.944 763.587 175.183 763.769C173.974 763.92 173.853 764.04 173.672 765.279C173.521 764.071 173.4 763.95 172.161 763.769C173.369 763.618 173.49 763.466 173.672 762.258Z" fill="white" fill-opacity="0.1"/>
<path d="M32.5105 752.031C32.6616 753.239 32.7825 753.36 34.0215 753.541C32.8127 753.692 32.6918 753.813 32.5105 755.051C32.3594 753.843 32.2385 753.723 30.9996 753.541C32.2083 753.39 32.3292 753.239 32.5105 752.031Z" fill="white" fill-opacity="0.1"/>
</svg>
