<svg width="161" height="48" viewBox="0 0 161 48" fill="none" xmlns="http://www.w3.org/2000/svg">
<path fill-rule="evenodd" clip-rule="evenodd" d="M0 10.7616C0 4.81813 4.81813 0 10.7616 0H51.6117C57.5552 0 62.3733 4.81813 62.3733 10.7616C62.3733 16.7051 57.5552 21.5232 51.6117 21.5232H35.64C34.2721 21.5232 33.1632 22.6321 33.1632 24C33.1632 25.3679 34.2721 26.4768 35.64 26.4768H150.003C155.947 26.4768 160.765 31.2949 160.765 37.2384C160.765 43.1819 155.947 48 150.003 48H10.7616C4.81817 48 4.88281e-05 43.1819 4.88281e-05 37.2384C4.88281e-05 31.2949 4.81818 26.4768 10.7616 26.4768H26.7332C28.1011 26.4768 29.21 25.3679 29.21 24C29.21 22.6321 28.1011 21.5232 26.7332 21.5232H10.7616C4.81813 21.5232 0 16.7051 0 10.7616ZM63.7516 41.8855C62.9974 41.8855 62.4076 41.7794 61.9835 41.5647C61.5581 41.3514 61.2612 41.0319 61.0916 40.6039C60.9219 40.1771 60.8371 39.6496 60.8371 39.0187V35.4495C60.8371 34.425 61.0651 33.6696 61.5223 33.1845C61.9782 32.6994 62.7218 32.4556 63.7529 32.4556H68.5467C69.2796 32.4556 69.8389 32.4953 70.2273 32.5762C70.6143 32.6557 70.8091 32.7392 70.8091 32.824L70.491 34.152C70.3108 34.1202 69.7766 34.0858 68.89 34.0473C68.0033 34.0102 66.7164 33.9917 65.0279 33.9917H64.2154C63.3659 33.9917 62.9418 34.3707 62.9418 35.1288V39.2109C62.9418 39.5741 63.0345 39.8537 63.2201 40.0512C63.4056 40.2487 63.7383 40.3467 64.2154 40.3467H64.8688C66.6316 40.3467 67.9993 40.3282 68.9708 40.2911C69.9423 40.254 70.5453 40.2142 70.7786 40.1705L71.432 41.2268C71.432 41.2798 71.3445 41.3606 71.1696 41.4667C70.9946 41.574 70.6726 41.6694 70.2061 41.7543C69.7382 41.8391 69.0649 41.8828 68.1836 41.8828H63.7555L63.7516 41.8855ZM28.2322 41.8854V33.7543L28.0732 32.4581H35.1294C35.8093 32.4581 36.3421 32.5496 36.7304 32.7298C37.1174 32.9114 37.405 33.1487 37.5906 33.4416C37.7761 33.7358 37.8954 34.0472 37.9484 34.3786C38.0014 34.7099 38.0279 35.024 38.0279 35.3236V36.2685C38.0279 36.5137 37.9908 36.7894 37.9166 37.0929C37.8424 37.3964 37.7045 37.6907 37.5031 37.973C37.3016 38.2553 37.0087 38.4912 36.627 38.6767C36.2453 38.8636 35.7457 38.9564 35.1294 38.9564H33.5045C32.8352 38.9564 32.2109 38.9405 31.6331 38.9087C31.0539 38.8768 30.6218 38.8503 30.3356 38.8291V41.8867H28.2335L28.2322 41.8854ZM30.3342 37.419H34.6668C35.1453 37.419 35.474 37.301 35.6542 37.0664C35.8345 36.8318 35.9246 36.5495 35.9246 36.2182V35.2096C35.9246 34.8676 35.8345 34.58 35.6542 34.3455C35.474 34.1109 35.1492 33.9929 34.6827 33.9929H30.3342V37.419ZM13.0358 41.8853C12.3135 41.8853 11.7833 41.8535 11.4427 41.7899C11.1034 41.7263 10.9324 41.6508 10.9324 41.5659L11.5699 40.173C11.8138 40.2154 12.4221 40.2552 13.3936 40.2936C14.3651 40.3307 15.7011 40.3493 17.4002 40.3493H17.7024C18.1583 40.3493 18.483 40.2671 18.6739 40.1014C18.8647 39.9357 18.9601 39.6561 18.9601 39.2611V38.9404C18.9601 38.5667 18.8833 38.3003 18.7295 38.1399C18.5758 37.9795 18.2325 37.9 17.7024 37.9H14.0073C12.9351 37.9 12.1544 37.6999 11.6654 37.2996C11.1763 36.8994 10.9324 36.246 10.9324 35.3381V35.0823C10.9324 34.6131 11.0199 34.1811 11.1949 33.7861C11.3698 33.3911 11.6693 33.0744 12.0948 32.8332C12.5189 32.5933 13.1034 32.4727 13.8469 32.4727H18.1795C18.9018 32.4727 19.485 32.5098 19.9316 32.5853C20.3783 32.6595 20.6009 32.7404 20.6009 32.8252L20.2828 34.1704C20.0072 34.1386 19.3803 34.1042 18.4035 34.0657C17.4267 34.0286 16.1146 34.0101 14.4685 34.0101L14.2936 33.9942C13.8045 33.9942 13.4758 34.0936 13.3062 34.2897C13.1365 34.4872 13.0451 34.7351 13.0358 35.0346V35.3063C13.0358 35.6588 13.1339 35.9226 13.33 36.0988C13.5262 36.2751 13.8535 36.3626 14.3095 36.3626H17.8455C18.5254 36.3626 19.1046 36.4315 19.5817 36.5707C20.0602 36.7098 20.426 36.963 20.6804 37.3314C20.9349 37.6999 21.0621 38.2419 21.0621 38.9563V39.2121C21.0621 40.0126 20.858 40.6581 20.4485 41.1484C20.039 41.6388 19.3312 41.8853 18.3226 41.8853H13.0358ZM47.4725 32.4727L42.8059 41.8853H45.1306L46.1657 39.8522H51.8687L52.8084 41.8853H55.2616L50.6109 32.4727H47.4725ZM51.2802 38.2844H46.7422L48.9397 33.9147H49.0987L51.2802 38.2844ZM77.8007 32.4727V41.8853H86.4977C87.1988 41.8853 87.6932 41.8668 87.9795 41.8297C88.2657 41.7912 88.4089 41.7515 88.4089 41.7091L87.7714 40.3479H79.9027V37.8032H85.8602V36.2181H79.9027V34.0088H87.7078V32.4727H77.8007ZM97.9819 41.8854L97.966 33.9942H93.8243V32.4581H104.242V33.9942H100.084V41.8854H97.9819ZM110.613 32.4727V41.8853H112.715V32.4727H110.613ZM120.202 41.8855V33.7545L120.043 32.4742H122.464L126.064 38.877L129.791 32.4742H131.94V41.8868H129.838V35.9161H129.663L129.042 37.3091L127.035 40.9273H125.108L123.101 37.3091L122.464 35.9161H122.305V41.8868H120.203L120.202 41.8855ZM139.268 32.4727V41.8853H147.965C148.666 41.8853 149.16 41.8668 149.447 41.8297C149.733 41.7912 149.876 41.7515 149.876 41.7091L149.239 40.3479H141.37V37.8032H147.327V36.2181H141.37V34.0088H149.175V32.4727H139.268ZM13.9613 8.23251V10.5086V10.5099L10.9265 11.7353L13.9613 12.9668V15.2454L8.04073 12.9069H8.02851V10.5722H8.04073L13.9613 8.23251ZM48.4541 15.1244V12.8495L51.4865 11.6253L48.4541 10.4011V8.125L54.3662 10.4622H54.3808V12.7994H54.3662L48.4541 15.1244ZM45.9153 4.90814L42.4382 16.7628H44.503L47.9801 4.90814H45.9153ZM23.5216 10.3193C23.5583 9.39203 23.2492 8.48794 22.6615 7.80253H22.6628C22.372 7.47877 22.0189 7.22465 21.6279 7.05727C21.237 6.88989 20.8179 6.81414 20.3964 6.83246C19.9444 6.81169 19.4935 6.88989 19.0708 7.06093C18.6481 7.23198 18.262 7.49343 17.9382 7.82819V7.07926H15.8735V15.3688H17.9382V11.6975C17.9382 9.79276 18.5846 8.84102 19.8772 8.84102C20.0934 8.83125 20.3097 8.87401 20.5088 8.96564C20.7067 9.05727 20.8839 9.19655 21.0256 9.37126C21.3274 9.77077 21.4813 10.2729 21.4569 10.7836V15.3688H23.5216V10.3193ZM26.1497 3.63158V15.4862H28.2144V3.63158H26.1497ZM38.1583 15.0513H39.8798L42.7765 6.74703H40.57L38.9439 11.7293L37.2689 6.74703H35.6586L33.9836 11.7134L32.3574 6.74703H30.151L33.0453 15.0513H34.7655L36.4698 10.1679L38.1583 15.0513Z" fill="url(#paint0_linear_19_262)"/>
<defs>
<linearGradient id="paint0_linear_19_262" x1="12.8968" y1="4.70915e-07" x2="200.883" y2="58.5056" gradientUnits="userSpaceOnUse">
<stop offset="0.251308" stop-color="#996DFF"/>
<stop offset="0.623787" stop-color="#FF876E"/>
<stop offset="1" stop-color="#FFD072"/>
</linearGradient>
</defs>
</svg>
