<svg width="210" height="20" viewBox="0 0 210 20" fill="none" xmlns="http://www.w3.org/2000/svg">
<path fill-rule="evenodd" clip-rule="evenodd" d="M0 9.99992C0 4.47712 4.47712 0 9.99992 0H48.1287C52.6088 0 56.4008 2.94618 57.673 7.00678C57.8795 7.66606 58.4614 8.16325 59.1523 8.16325C59.8432 8.16325 60.4252 7.66608 60.6317 7.0068C61.9039 2.94627 65.6959 0.00016285 70.1759 0.00016285H200C205.523 0.00016285 210 4.47728 210 10.0001C210 15.5229 205.523 20 200.001 20H70.1759C65.6958 20 61.9038 17.0538 60.6316 12.9932C60.4251 12.3339 59.8432 11.8367 59.1523 11.8367C58.4614 11.8367 57.8795 12.3339 57.6729 12.9931C56.4008 17.0537 52.6088 19.9998 48.1287 19.9998H9.99991C4.4771 19.9998 0 15.5227 0 9.99992ZM119.503 14.5346C118.8 14.5346 118.25 14.4361 117.855 14.2366C117.458 14.0383 117.182 13.7415 117.024 13.3437C116.866 12.9472 116.786 12.457 116.786 11.8708V8.55421C116.786 7.60222 116.999 6.90024 117.425 6.44949C117.85 5.99874 118.543 5.77214 119.504 5.77214H123.971C124.654 5.77214 125.176 5.80908 125.538 5.88421C125.898 5.9581 126.08 6.03569 126.08 6.11451L125.783 7.34852C125.615 7.31897 125.118 7.28695 124.291 7.25123C123.465 7.21675 122.266 7.1995 120.692 7.1995H119.935C119.143 7.1995 118.748 7.55173 118.748 8.25618V12.0494C118.748 12.3868 118.834 12.6467 119.007 12.8302C119.18 13.0137 119.49 13.1048 119.935 13.1048H120.544C122.187 13.1048 123.461 13.0876 124.367 13.0531C125.272 13.0186 125.834 12.9816 126.051 12.941L126.66 13.9225C126.66 13.9718 126.579 14.0469 126.416 14.1455C126.253 14.2452 125.953 14.3339 125.518 14.4127C125.082 14.4915 124.454 14.5322 123.633 14.5322H119.506L119.503 14.5346ZM86.4004 14.5344V6.97885L86.2522 5.77439H92.8282C93.4618 5.77439 93.9583 5.85937 94.3202 6.02686C94.6809 6.19558 94.9489 6.41603 95.1219 6.6882C95.2948 6.96161 95.4059 7.25102 95.4554 7.55891C95.5048 7.8668 95.5295 8.15868 95.5295 8.43701V9.3151C95.5295 9.54294 95.4949 9.7991 95.4257 10.0811C95.3565 10.3632 95.2281 10.6366 95.0403 10.8989C94.8526 11.1612 94.5796 11.3804 94.2239 11.5528C93.8682 11.7265 93.4025 11.8127 92.8282 11.8127H91.3139C90.6901 11.8127 90.1083 11.7979 89.5698 11.7684C89.03 11.7388 88.6274 11.7142 88.3606 11.6945V14.5357H86.4016L86.4004 14.5344ZM88.3593 10.3841H92.3971C92.843 10.3841 93.1493 10.2745 93.3173 10.0565C93.4853 9.83851 93.5693 9.57619 93.5693 9.2683V8.33109C93.5693 8.01335 93.4853 7.7461 93.3173 7.52812C93.1493 7.31014 92.8467 7.20053 92.4119 7.20053H88.3593V10.3841ZM72.238 14.5346C71.5649 14.5346 71.0708 14.505 70.7534 14.4459C70.4372 14.3868 70.2778 14.3166 70.2778 14.2378L70.8719 12.9434C71.0992 12.9828 71.6662 13.0198 72.5715 13.0555C73.4769 13.09 74.7219 13.1072 76.3054 13.1072H76.587C77.0119 13.1072 77.3145 13.0309 77.4924 12.8769C77.6703 12.723 77.7592 12.4631 77.7592 12.0961V11.7981C77.7592 11.4508 77.6876 11.2032 77.5443 11.0542C77.401 10.9052 77.0811 10.8313 76.587 10.8313H73.1434C72.1442 10.8313 71.4166 10.6454 70.9609 10.2734C70.5051 9.9015 70.2778 9.29434 70.2778 8.45073V8.21304C70.2778 7.77707 70.3594 7.37559 70.5224 7.00858C70.6854 6.64158 70.9646 6.34724 71.3611 6.1231C71.7563 5.90019 72.301 5.78812 72.9939 5.78812H77.0317C77.7049 5.78812 78.2483 5.8226 78.6646 5.8928C79.0808 5.96177 79.2883 6.03689 79.2883 6.11571L78.9919 7.36573C78.735 7.33618 78.1507 7.30416 77.2404 7.26844C76.3301 7.23396 75.1073 7.21672 73.5732 7.21672L73.4102 7.20194C72.9544 7.20194 72.6481 7.2943 72.49 7.47657C72.3319 7.66007 72.2467 7.89038 72.238 8.16871V8.42117C72.238 8.74877 72.3294 8.99384 72.5122 9.15764C72.695 9.32144 73.0001 9.40272 73.425 9.40272H76.7204C77.3541 9.40272 77.8938 9.46676 78.3385 9.59607C78.7844 9.72539 79.1253 9.96061 79.3624 10.303C79.5996 10.6454 79.7182 11.1491 79.7182 11.8129V12.0506C79.7182 12.7944 79.528 13.3942 79.1463 13.8499C78.7646 14.3055 78.105 14.5346 77.1651 14.5346H72.238ZM104.331 5.78816L99.9823 14.5346H102.149L103.113 12.6454H108.428L109.304 14.5346H111.59L107.256 5.78816H104.331ZM107.88 11.1885H103.651L105.699 7.12809H105.847L107.88 11.1885ZM132.596 5.78816V14.5346H140.701C141.354 14.5346 141.815 14.5174 142.082 14.4829C142.348 14.4472 142.482 14.4103 142.482 14.3708L141.888 13.106H134.555V10.7415H140.107V9.26853H134.555V7.21553H141.828V5.78816H132.596ZM151.403 14.5344L151.388 7.20179H147.528V5.77442H157.237V7.20179H153.362V14.5344H151.403ZM163.174 5.78816V14.5346H165.133V5.78816H163.174ZM172.111 14.5347V6.97916L171.962 5.78948H174.219L177.574 11.7391L181.047 5.78948H183.05V14.536H181.091V8.98782H180.928L180.349 10.2822L178.479 13.6443H176.683L174.813 10.2822L174.219 8.98782H174.071V14.536H172.112L172.111 14.5347ZM189.88 5.78816V14.5346H197.985C198.638 14.5346 199.099 14.5174 199.366 14.4829C199.633 14.4472 199.766 14.4103 199.766 14.3708L199.172 13.106H191.839V10.7415H197.391V9.26853H191.839V7.21553H199.113V5.78816H189.88ZM13.0916 7.6498V9.76483V9.76596L10.2633 10.9046L13.0916 12.049V14.1663L7.57389 11.9934H7.5625V9.82386H7.57389L13.0916 7.6498ZM45.2369 14.0539V11.94L48.0629 10.8025L45.2369 9.66493V7.5499L50.7466 9.72169H50.7603V11.8935H50.7466L45.2369 14.0539ZM42.8708 4.56072L39.6304 15.5763H41.5546L44.7951 4.56072H42.8708ZM22.0012 9.5889C22.0354 8.72722 21.7473 7.88711 21.1996 7.25022H21.2008C20.9298 6.94937 20.6007 6.71323 20.2364 6.5577C19.872 6.40217 19.4815 6.33178 19.0887 6.34881C18.6674 6.32951 18.2472 6.40217 17.8533 6.56111C17.4593 6.72004 17.0995 6.96299 16.7978 7.27406V6.57814H14.8735V14.281H16.7978V10.8695C16.7978 9.09959 17.4001 8.21521 18.6047 8.21521C18.8063 8.20613 19.0078 8.24586 19.1934 8.33101C19.3779 8.41615 19.543 8.54557 19.675 8.70792C19.9563 9.07915 20.0997 9.54575 20.077 10.0203V14.281H22.0012V9.5889ZM24.4506 3.37449V14.3901H26.3749V3.37449H24.4506ZM35.6416 13.9859H37.2459L39.9456 6.26945H37.8892L36.3738 10.8991L34.8127 6.26945H33.312L31.751 10.8844L30.2355 6.26945H28.1792L30.8766 13.9859H32.4797L34.0681 9.44823L35.6416 13.9859Z" fill="url(#paint0_linear_46_3605)"/>
<defs>
<linearGradient id="paint0_linear_46_3605" x1="3.47954" y1="-6.6526" x2="236.326" y2="-6.6526" gradientUnits="userSpaceOnUse">
<stop offset="0.251308" stop-color="#996DFF"/>
<stop offset="0.623787" stop-color="#FF876E"/>
<stop offset="1" stop-color="#FFD072"/>
</linearGradient>
</defs>
</svg>
