<svg width="8" height="844" viewBox="0 0 8 844" fill="none" xmlns="http://www.w3.org/2000/svg">
<rect width="8" height="1" transform="matrix(-1 0 0 1 8 4)" fill="white" fill-opacity="0.1"/>
<rect width="8" height="1" transform="matrix(-1 0 0 1 8 13)" fill="white" fill-opacity="0.1"/>
<rect width="8" height="1" transform="matrix(-1 0 0 1 8 22)" fill="white" fill-opacity="0.1"/>
<rect width="8" height="1" transform="matrix(-1 0 0 1 8 31)" fill="white" fill-opacity="0.1"/>
<rect width="8" height="1" transform="matrix(-1 0 0 1 8 40)" fill="white" fill-opacity="0.1"/>
<rect width="8" height="1" transform="matrix(-1 0 0 1 8 49)" fill="white" fill-opacity="0.1"/>
<rect width="8" height="1" transform="matrix(-1 0 0 1 8 58)" fill="white" fill-opacity="0.1"/>
<rect width="8" height="1" transform="matrix(-1 0 0 1 8 67)" fill="white" fill-opacity="0.1"/>
<rect width="8" height="1" transform="matrix(-1 0 0 1 8 76)" fill="white" fill-opacity="0.1"/>
<rect width="8" height="1" transform="matrix(-1 0 0 1 8 85)" fill="white" fill-opacity="0.1"/>
<rect width="8" height="1" transform="matrix(-1 0 0 1 8 94)" fill="white" fill-opacity="0.1"/>
<rect width="8" height="1" transform="matrix(-1 0 0 1 8 103)" fill="white" fill-opacity="0.1"/>
<rect width="8" height="1" transform="matrix(-1 0 0 1 8 112)" fill="white" fill-opacity="0.1"/>
<rect width="8" height="1" transform="matrix(-1 0 0 1 8 121)" fill="white" fill-opacity="0.1"/>
<rect width="8" height="1" transform="matrix(-1 0 0 1 8 130)" fill="white" fill-opacity="0.1"/>
<rect width="8" height="1" transform="matrix(-1 0 0 1 8 139)" fill="white" fill-opacity="0.1"/>
<rect width="8" height="1" transform="matrix(-1 0 0 1 8 148)" fill="white" fill-opacity="0.1"/>
<rect width="8" height="1" transform="matrix(-1 0 0 1 8 157)" fill="white" fill-opacity="0.1"/>
<rect width="8" height="1" transform="matrix(-1 0 0 1 8 166)" fill="white" fill-opacity="0.1"/>
<rect width="8" height="1" transform="matrix(-1 0 0 1 8 175)" fill="white" fill-opacity="0.1"/>
<rect width="8" height="1" transform="matrix(-1 0 0 1 8 184)" fill="white" fill-opacity="0.1"/>
<rect width="8" height="1" transform="matrix(-1 0 0 1 8 193)" fill="white" fill-opacity="0.1"/>
<rect width="8" height="1" transform="matrix(-1 0 0 1 8 202)" fill="white" fill-opacity="0.1"/>
<rect width="8" height="1" transform="matrix(-1 0 0 1 8 211)" fill="white" fill-opacity="0.1"/>
<rect width="8" height="1" transform="matrix(-1 0 0 1 8 220)" fill="white" fill-opacity="0.1"/>
<rect width="8" height="1" transform="matrix(-1 0 0 1 8 229)" fill="white" fill-opacity="0.1"/>
<rect width="8" height="1" transform="matrix(-1 0 0 1 8 238)" fill="white" fill-opacity="0.1"/>
<rect width="8" height="1" transform="matrix(-1 0 0 1 8 247)" fill="white" fill-opacity="0.1"/>
<rect width="8" height="1" transform="matrix(-1 0 0 1 8 256)" fill="white" fill-opacity="0.1"/>
<rect width="8" height="1" transform="matrix(-1 0 0 1 8 265)" fill="white" fill-opacity="0.1"/>
<rect width="8" height="1" transform="matrix(-1 0 0 1 8 274)" fill="white" fill-opacity="0.1"/>
<rect width="8" height="1" transform="matrix(-1 0 0 1 8 283)" fill="white" fill-opacity="0.1"/>
<rect width="8" height="1" transform="matrix(-1 0 0 1 8 292)" fill="white" fill-opacity="0.1"/>
<rect width="8" height="1" transform="matrix(-1 0 0 1 8 301)" fill="white" fill-opacity="0.1"/>
<rect width="8" height="1" transform="matrix(-1 0 0 1 8 310)" fill="white" fill-opacity="0.1"/>
<rect width="8" height="1" transform="matrix(-1 0 0 1 8 319)" fill="white" fill-opacity="0.1"/>
<rect width="8" height="1" transform="matrix(-1 0 0 1 8 328)" fill="white" fill-opacity="0.1"/>
<rect width="8" height="1" transform="matrix(-1 0 0 1 8 337)" fill="white" fill-opacity="0.1"/>
<rect width="8" height="1" transform="matrix(-1 0 0 1 8 346)" fill="white" fill-opacity="0.1"/>
<rect width="8" height="1" transform="matrix(-1 0 0 1 8 355)" fill="white" fill-opacity="0.1"/>
<rect width="8" height="1" transform="matrix(-1 0 0 1 8 364)" fill="white" fill-opacity="0.1"/>
<rect width="8" height="1" transform="matrix(-1 0 0 1 8 373)" fill="white" fill-opacity="0.1"/>
<rect width="8" height="1" transform="matrix(-1 0 0 1 8 382)" fill="white" fill-opacity="0.1"/>
<rect width="8" height="1" transform="matrix(-1 0 0 1 8 391)" fill="white" fill-opacity="0.1"/>
<rect width="8" height="1" transform="matrix(-1 0 0 1 8 400)" fill="white" fill-opacity="0.1"/>
<rect width="8" height="1" transform="matrix(-1 0 0 1 8 409)" fill="white" fill-opacity="0.1"/>
<rect width="8" height="1" transform="matrix(-1 0 0 1 8 418)" fill="white" fill-opacity="0.1"/>
<rect width="8" height="1" transform="matrix(-1 0 0 1 8 427)" fill="white" fill-opacity="0.1"/>
<rect width="8" height="1" transform="matrix(-1 0 0 1 8 436)" fill="white" fill-opacity="0.1"/>
<rect width="8" height="1" transform="matrix(-1 0 0 1 8 445)" fill="white" fill-opacity="0.1"/>
<rect width="8" height="1" transform="matrix(-1 0 0 1 8 454)" fill="white" fill-opacity="0.1"/>
<rect width="8" height="1" transform="matrix(-1 0 0 1 8 463)" fill="white" fill-opacity="0.1"/>
<rect width="8" height="1" transform="matrix(-1 0 0 1 8 472)" fill="white" fill-opacity="0.1"/>
<rect width="8" height="1" transform="matrix(-1 0 0 1 8 481)" fill="white" fill-opacity="0.1"/>
<rect width="8" height="1" transform="matrix(-1 0 0 1 8 490)" fill="white" fill-opacity="0.1"/>
<rect width="8" height="1" transform="matrix(-1 0 0 1 8 499)" fill="white" fill-opacity="0.1"/>
<rect width="8" height="1" transform="matrix(-1 0 0 1 8 508)" fill="white" fill-opacity="0.1"/>
<rect width="8" height="1" transform="matrix(-1 0 0 1 8 517)" fill="white" fill-opacity="0.1"/>
<rect width="8" height="1" transform="matrix(-1 0 0 1 8 526)" fill="white" fill-opacity="0.1"/>
<rect width="8" height="1" transform="matrix(-1 0 0 1 8 535)" fill="white" fill-opacity="0.1"/>
<rect width="8" height="1" transform="matrix(-1 0 0 1 8 544)" fill="white" fill-opacity="0.1"/>
<rect width="8" height="1" transform="matrix(-1 0 0 1 8 553)" fill="white" fill-opacity="0.1"/>
<rect width="8" height="1" transform="matrix(-1 0 0 1 8 562)" fill="white" fill-opacity="0.1"/>
<rect width="8" height="1" transform="matrix(-1 0 0 1 8 571)" fill="white" fill-opacity="0.1"/>
<rect width="8" height="1" transform="matrix(-1 0 0 1 8 580)" fill="white" fill-opacity="0.1"/>
<rect width="8" height="1" transform="matrix(-1 0 0 1 8 589)" fill="white" fill-opacity="0.1"/>
<rect width="8" height="1" transform="matrix(-1 0 0 1 8 598)" fill="white" fill-opacity="0.1"/>
<rect width="8" height="1" transform="matrix(-1 0 0 1 8 607)" fill="white" fill-opacity="0.1"/>
<rect width="8" height="1" transform="matrix(-1 0 0 1 8 616)" fill="white" fill-opacity="0.1"/>
<rect width="8" height="1" transform="matrix(-1 0 0 1 8 625)" fill="white" fill-opacity="0.1"/>
<rect width="8" height="1" transform="matrix(-1 0 0 1 8 634)" fill="white" fill-opacity="0.1"/>
<rect width="8" height="1" transform="matrix(-1 0 0 1 8 643)" fill="white" fill-opacity="0.1"/>
<rect width="8" height="1" transform="matrix(-1 0 0 1 8 652)" fill="white" fill-opacity="0.1"/>
<rect width="8" height="1" transform="matrix(-1 0 0 1 8 661)" fill="white" fill-opacity="0.1"/>
<rect width="8" height="1" transform="matrix(-1 0 0 1 8 670)" fill="white" fill-opacity="0.1"/>
<rect width="8" height="1" transform="matrix(-1 0 0 1 8 679)" fill="white" fill-opacity="0.1"/>
<rect width="8" height="1" transform="matrix(-1 0 0 1 8 688)" fill="white" fill-opacity="0.1"/>
<rect width="8" height="1" transform="matrix(-1 0 0 1 8 697)" fill="white" fill-opacity="0.1"/>
<rect width="8" height="1" transform="matrix(-1 0 0 1 8 706)" fill="white" fill-opacity="0.1"/>
<rect width="8" height="1" transform="matrix(-1 0 0 1 8 715)" fill="white" fill-opacity="0.1"/>
<rect width="8" height="1" transform="matrix(-1 0 0 1 8 724)" fill="white" fill-opacity="0.1"/>
<rect width="8" height="1" transform="matrix(-1 0 0 1 8 733)" fill="white" fill-opacity="0.1"/>
<rect width="8" height="1" transform="matrix(-1 0 0 1 8 742)" fill="white" fill-opacity="0.1"/>
<rect width="8" height="1" transform="matrix(-1 0 0 1 8 751)" fill="white" fill-opacity="0.1"/>
<rect width="8" height="1" transform="matrix(-1 0 0 1 8 760)" fill="white" fill-opacity="0.1"/>
<rect width="8" height="1" transform="matrix(-1 0 0 1 8 769)" fill="white" fill-opacity="0.1"/>
<rect width="8" height="1" transform="matrix(-1 0 0 1 8 778)" fill="white" fill-opacity="0.1"/>
<rect width="8" height="1" transform="matrix(-1 0 0 1 8 787)" fill="white" fill-opacity="0.1"/>
<rect width="8" height="1" transform="matrix(-1 0 0 1 8 796)" fill="white" fill-opacity="0.1"/>
<rect width="8" height="1" transform="matrix(-1 0 0 1 8 805)" fill="white" fill-opacity="0.1"/>
<rect width="8" height="1" transform="matrix(-1 0 0 1 8 814)" fill="white" fill-opacity="0.1"/>
<rect width="8" height="1" transform="matrix(-1 0 0 1 8 823)" fill="white" fill-opacity="0.1"/>
<rect width="8" height="1" transform="matrix(-1 0 0 1 8 832)" fill="white" fill-opacity="0.1"/>
<rect width="8" height="1" transform="matrix(-1 0 0 1 8 841)" fill="white" fill-opacity="0.1"/>
</svg>
